<mxfile host="app.diagrams.net" modified="2024-03-14T21:08:32.943Z" agent="Mozilla/5.0 (Windows NT 10.0; Win64; x64) AppleWebKit/537.36 (KHTML, like Gecko) Chrome/122.0.0.0 Safari/537.36 Edg/122.0.0.0" etag="gpwgaRkMw7Dp4LVkNX2K" version="24.0.6" type="github">
  <diagram name="Page-1" id="uQDkDCe577WtaqUsajSK">
    <mxGraphModel dx="1339" dy="751" grid="1" gridSize="10" guides="1" tooltips="1" connect="1" arrows="1" fold="1" page="1" pageScale="1" pageWidth="850" pageHeight="1100" math="0" shadow="0">
      <root>
        <mxCell id="0" />
        <mxCell id="1" parent="0" />
        <mxCell id="AYan89_76uHAUzpFNymP-6" value="" style="image;aspect=fixed;perimeter=ellipsePerimeter;html=1;align=center;shadow=0;dashed=0;spacingTop=3;image=img/lib/active_directory/firewall.svg;" vertex="1" parent="1">
          <mxGeometry x="442.9" y="250" width="67.1" height="110" as="geometry" />
        </mxCell>
        <mxCell id="AYan89_76uHAUzpFNymP-10" value="S" style="image;aspect=fixed;perimeter=ellipsePerimeter;html=1;align=center;shadow=0;dashed=0;spacingTop=3;image=img/lib/active_directory/generic_server.svg;" vertex="1" parent="1">
          <mxGeometry x="560" y="150" width="157.6" height="281.43" as="geometry" />
        </mxCell>
        <mxCell id="AYan89_76uHAUzpFNymP-11" value="S" style="image;aspect=fixed;perimeter=ellipsePerimeter;html=1;align=center;shadow=0;dashed=0;spacingTop=3;image=img/lib/active_directory/generic_server.svg;" vertex="1" parent="1">
          <mxGeometry x="80" y="150" width="157.6" height="281.43" as="geometry" />
        </mxCell>
        <mxCell id="AYan89_76uHAUzpFNymP-12" value="" style="image;aspect=fixed;html=1;points=[];align=center;fontSize=12;image=img/lib/azure2/other/SSH_Keys.svg;" vertex="1" parent="1">
          <mxGeometry x="237.6" y="360" width="68" height="60" as="geometry" />
        </mxCell>
        <mxCell id="AYan89_76uHAUzpFNymP-13" value="" style="shape=flexArrow;endArrow=classic;html=1;rounded=0;entryX=0.063;entryY=0.533;entryDx=0;entryDy=0;entryPerimeter=0;" edge="1" parent="1" target="AYan89_76uHAUzpFNymP-10">
          <mxGeometry width="50" height="50" relative="1" as="geometry">
            <mxPoint x="240" y="305" as="sourcePoint" />
            <mxPoint x="450" y="340" as="targetPoint" />
          </mxGeometry>
        </mxCell>
        <mxCell id="AYan89_76uHAUzpFNymP-14" value="SSH" style="edgeLabel;html=1;align=center;verticalAlign=middle;resizable=0;points=[];" vertex="1" connectable="0" parent="AYan89_76uHAUzpFNymP-13">
          <mxGeometry x="-0.0449" y="-3" relative="1" as="geometry">
            <mxPoint as="offset" />
          </mxGeometry>
        </mxCell>
        <mxCell id="AYan89_76uHAUzpFNymP-19" value="" style="sketch=0;outlineConnect=0;fontColor=#232F3E;gradientColor=none;fillColor=#E7157B;strokeColor=none;dashed=0;verticalLabelPosition=bottom;verticalAlign=top;align=center;html=1;fontSize=12;fontStyle=0;aspect=fixed;pointerEvents=1;shape=mxgraph.aws4.organizations_account;" vertex="1" parent="1">
          <mxGeometry x="163.6" y="351" width="74" height="78" as="geometry" />
        </mxCell>
        <mxCell id="AYan89_76uHAUzpFNymP-20" value="" style="image;sketch=0;aspect=fixed;html=1;points=[];align=center;fontSize=12;image=img/lib/mscae/App_Service_IPAddress.svg;" vertex="1" parent="1">
          <mxGeometry x="510" y="369" width="50" height="42" as="geometry" />
        </mxCell>
        <mxCell id="AYan89_76uHAUzpFNymP-22" value="&lt;font color=&quot;#ffffff&quot;&gt;Manager&lt;/font&gt;" style="text;strokeColor=none;fillColor=none;html=1;fontSize=24;fontStyle=1;verticalAlign=middle;align=center;" vertex="1" parent="1">
          <mxGeometry x="130" y="190" width="100" height="40" as="geometry" />
        </mxCell>
        <mxCell id="AYan89_76uHAUzpFNymP-23" value="&lt;font color=&quot;#ffffff&quot;&gt;Server&lt;/font&gt;" style="text;strokeColor=none;fillColor=none;html=1;fontSize=24;fontStyle=1;verticalAlign=middle;align=center;" vertex="1" parent="1">
          <mxGeometry x="610" y="270.71" width="100" height="40" as="geometry" />
        </mxCell>
        <mxCell id="AYan89_76uHAUzpFNymP-25" value="&lt;font color=&quot;#ffffff&quot;&gt;Blueprint&lt;/font&gt;" style="rounded=0;whiteSpace=wrap;html=1;fillColor=#000000;" vertex="1" parent="1">
          <mxGeometry x="156" y="230" width="70" height="20" as="geometry" />
        </mxCell>
        <mxCell id="AYan89_76uHAUzpFNymP-26" value="&lt;font color=&quot;#ffffff&quot;&gt;Plugin&lt;/font&gt;" style="rounded=0;whiteSpace=wrap;html=1;fillColor=#000000;fillStyle=auto;" vertex="1" parent="1">
          <mxGeometry x="156" y="263" width="70" height="20" as="geometry" />
        </mxCell>
        <mxCell id="AYan89_76uHAUzpFNymP-27" value="" style="endArrow=classic;html=1;rounded=0;exitX=0.5;exitY=1;exitDx=0;exitDy=0;entryX=0.5;entryY=0;entryDx=0;entryDy=0;" edge="1" parent="1" source="AYan89_76uHAUzpFNymP-25" target="AYan89_76uHAUzpFNymP-26">
          <mxGeometry width="50" height="50" relative="1" as="geometry">
            <mxPoint x="400" y="390" as="sourcePoint" />
            <mxPoint x="450" y="340" as="targetPoint" />
          </mxGeometry>
        </mxCell>
        <mxCell id="AYan89_76uHAUzpFNymP-29" value="&lt;font color=&quot;#ffffff&quot;&gt;ansible-playbook&lt;/font&gt;" style="rounded=0;whiteSpace=wrap;html=1;fillColor=#000000;fillStyle=auto;" vertex="1" parent="1">
          <mxGeometry x="133" y="295" width="96" height="20" as="geometry" />
        </mxCell>
        <mxCell id="AYan89_76uHAUzpFNymP-30" value="" style="endArrow=classic;html=1;rounded=0;exitX=0.5;exitY=1;exitDx=0;exitDy=0;entryX=0.594;entryY=0.05;entryDx=0;entryDy=0;entryPerimeter=0;" edge="1" parent="1" source="AYan89_76uHAUzpFNymP-26" target="AYan89_76uHAUzpFNymP-29">
          <mxGeometry width="50" height="50" relative="1" as="geometry">
            <mxPoint x="400" y="390" as="sourcePoint" />
            <mxPoint x="450" y="340" as="targetPoint" />
          </mxGeometry>
        </mxCell>
      </root>
    </mxGraphModel>
  </diagram>
</mxfile>
